<?xml version="1.0" encoding="utf-8"?>
<!-- Generator: Adobe Illustrator 20.1.0, SVG Export Plug-In . SVG Version: 6.00 Build 0)  -->
<!DOCTYPE svg PUBLIC "-//W3C//DTD SVG 1.1//EN" "http://www.w3.org/Graphics/SVG/1.1/DTD/svg11.dtd">
<svg version="1.1" id="Layer_1" xmlns="http://www.w3.org/2000/svg" xmlns:xlink="http://www.w3.org/1999/xlink" x="0px" y="0px"
	 viewBox="0 0 783.6 186" style="enable-background:new 0 0 783.6 186;" xml:space="preserve">
<style type="text/css">
	.st0{fill:#FFFFFF;}
	.st1{enable-background:new    ;}
</style>
<path class="st0" d="M0,2.9C10.9,1.2,24,0,38.2,0C64,0,82.4,6,94.6,17.4c12.4,11.4,19.6,27.5,19.6,50c0,22.7-7,41.3-20,54.1
	c-13,13-34.5,20-61.6,20c-12.8,0-23.6-0.6-32.6-1.7C0,139.8,0,2.9,0,2.9z M18,126c4.5,0.8,11.2,1,18.2,1c38.4,0,59.3-21.5,59.3-59.1
	C95.7,35.1,77.1,14.2,39,14.2c-9.3,0-16.3,0.8-21.1,1.9V126H18z"/>
<path class="st0" d="M157.2,12.2c0.2,6.2-4.3,11.2-11.6,11.2c-6.4,0-10.9-5-10.9-11.2c0-6.4,4.8-11.4,11.4-11.4
	C152.9,0.8,157.2,5.8,157.2,12.2z M137,140.2V40.3h18.2v100H137V140.2z"/>
<path class="st0" d="M185.3,71.5c0-11.8-0.2-21.9-0.8-31.2h15.9l0.6,19.6h0.8c4.5-13.4,15.5-21.9,27.7-21.9c2.1,0,3.5,0.2,5.2,0.6
	v17.1c-1.9-0.4-3.7-0.6-6.2-0.6c-12.8,0-21.9,9.7-24.4,23.3c-0.4,2.5-0.8,5.4-0.8,8.5v53.3h-18V71.5z"/>
<path class="st0" d="M260.9,93.6c0.4,24.6,16.1,34.7,34.3,34.7c13,0,20.9-2.3,27.7-5.2l3.1,13c-6.4,2.9-17.4,6.2-33.3,6.2
	c-30.8,0-49.2-20.2-49.2-50.4S261.3,38,290.4,38c32.6,0,41.3,28.7,41.3,47.1c0,3.7-0.4,6.6-0.6,8.5
	C331.1,93.6,260.9,93.6,260.9,93.6z M314.2,80.5C314.4,68.9,309.4,51,289,51c-18.4,0-26.4,16.9-27.9,29.5H314.2z"/>
<path class="st0" d="M425.6,136.5c-4.8,2.5-15.3,5.8-28.7,5.8c-30.2,0-49.8-20.5-49.8-51c0-30.8,21.1-53.1,53.7-53.1
	c10.7,0,20.2,2.7,25.2,5.2l-4.1,14c-4.3-2.5-11.2-4.8-21.1-4.8c-22.9,0-35.3,16.9-35.3,37.8c0,23.1,14.9,37.4,34.7,37.4
	c10.3,0,17.1-2.7,22.3-5L425.6,136.5z"/>
<path class="st0" d="M471.4,11.5v28.8h26v13.8h-26V108c0,12.4,3.5,19.4,13.6,19.4c4.8,0,8.3-0.6,10.5-1.2l0.8,13.6
	c-3.5,1.4-9.1,2.5-16.1,2.5c-8.5,0-15.3-2.7-19.6-7.6c-5.2-5.4-7-14.3-7-26V54.1h-15.5V40.3h15.5v-24L471.4,11.5z"/>
<path class="st0" d="M630.1,71.5c0-11.8-0.2-21.9-0.8-31.2h15.9l0.6,19.6h0.8c4.5-13.4,15.5-21.9,27.7-21.9c2.1,0,3.5,0.2,5.2,0.6
	v17.1c-1.9-0.4-3.7-0.6-6.2-0.6c-12.8,0-21.9,9.7-24.4,23.3c-0.4,2.5-0.8,5.4-0.8,8.5v53.3h-18V71.5z"/>
<path class="st0" d="M709.4,40.3l21.9,59.1c2.3,6.6,4.8,14.5,6.4,20.5h0.4c1.9-6,3.9-13.6,6.4-20.9l19.9-58.7h19.2l-27.3,71.3
	c-13,34.3-21.9,51.9-34.3,62.6c-8.9,7.8-17.8,10.9-22.3,11.8l-4.5-15.3c4.5-1.4,10.5-4.3,15.9-8.9c5-3.9,11.2-10.9,15.3-20.2
	c0.8-1.9,1.4-3.3,1.4-4.3s-0.4-2.5-1.2-4.8l-37-92.1L709.4,40.3L709.4,40.3z"/>
<text transform="matrix(1 0 0 1 4649.4243 3187.4402)" class="st0" style="font-family:'MyriadPro-Regular'; font-size:206.5846px;">Directory</text>
<path class="st0" d="M594.4,112.6c-1.5-3.6-3.5-7.1-5.9-10.3c-2.4-3.2-5.1-6.2-8.1-8.6c-3-2.4-6.1-4.4-9.4-5.6
	c-0.9,0.6-1.9,1.1-2.9,1.5c-1,0.5-2,0.8-3.1,1.2s-2.2,0.6-3.3,0.7c-1.1,0.2-2.3,0.2-3.4,0.2c-3.3,0-6.4-0.7-9.3-1.9
	c-2.9-1.2-5.4-3-7.6-5.1s-3.9-4.7-5.1-7.6s-1.9-6-1.9-9.3c0-3.3,0.7-6.4,1.9-9.3c1.2-2.9,3-5.4,5.1-7.6s4.7-3.9,7.6-5.1
	c2.9-1.2,6-1.9,9.3-1.9c3.3,0,6.4,0.7,9.3,1.9s5.4,3,7.6,5.1s3.9,4.7,5.1,7.6c1.2,2.9,1.9,6,1.9,9.3c0,1.5-0.1,3-0.4,4.5
	c-0.3,1.5-0.7,2.9-1.2,4.2c-0.5,1.3-1.2,2.6-1.9,3.8c-0.8,1.2-1.6,2.4-2.6,3.4c3.6,1.7,7,3.7,9.9,6c2.9,2.3,5.5,4.9,7.6,7.8
	c2.1,2.9,3.7,6.1,4.8,9.6c1.1,3.5,1.7,7.4,1.7,11.5c4.3-7.7,7-17.4,7-29.2c0-30.5-19.4-51.4-48.1-51.4c-27.7,0-49.6,19.6-49.6,53.1
	c0,11.1,2.6,20.8,7.1,28.7c0-3,0.3-5.9,1-8.5c0.6-2.7,1.6-5.3,2.8-7.7c1.2-2.5,2.7-4.8,4.5-7s3.8-4.3,6.1-6.3c0.3-0.3,0.7-0.5,1-0.6
	s0.8-0.2,1.1-0.1s0.8,0.1,1.1,0.3c0.3,0.2,0.7,0.4,0.9,0.7c0.3,0.3,0.5,0.7,0.6,1s0.2,0.8,0.1,1.1c0,0.4-0.1,0.8-0.3,1.1
	c-0.2,0.3-0.4,0.7-0.7,0.9c-1.8,1.5-3.6,3.6-5.3,6c-1.7,2.4-3.3,5-4.7,7.8s-2.6,5.6-3.6,8.3c-0.9,2.7-1.5,5.3-1.7,7.6
	c8.7,11.6,22.2,18.2,37.8,18.2c14.8,0,30.1-6,39.8-19.2l0-0.1C596.8,119.8,595.9,116.2,594.4,112.6z"/>
<path class="st0" d="M576.3,66c-0.4-4.2-2.3-8-5.2-10.8c-2.9-2.9-6.6-4.8-10.8-5.2c-5.7-0.6-10.9,1.5-14.5,5.2
	c-3.6,3.6-5.7,8.9-5.2,14.5c0.4,4.2,2.3,8,5.2,10.8c2.9,2.9,6.6,4.8,10.8,5.2c5.7,0.6,10.9-1.5,14.5-5.2
	C574.8,76.8,576.9,71.6,576.3,66z"/>
</svg>
