<svg id="Layer_1" xmlns="http://www.w3.org/2000/svg" viewBox="0 0 783.6 186"><style>.st0{fill:#fff}.st1{enable-background:new}</style><path class="st0" d="M0 2.9C10.9 1.2 24 0 38.2 0 64 0 82.4 6 94.6 17.4c12.4 11.4 19.6 27.5 19.6 50 0 22.7-7 41.3-20 54.1-13 13-34.5 20-61.6 20-12.8 0-23.6-.6-32.6-1.7V2.9zM18 126c4.5.8 11.2 1 18.2 1 38.4 0 59.3-21.5 59.3-59.1.2-32.8-18.4-53.7-56.5-53.7-9.3 0-16.3.8-21.1 1.9V126h.1zM157.2 12.2c.2 6.2-4.3 11.2-11.6 11.2-6.4 0-10.9-5-10.9-11.2 0-6.4 4.8-11.4 11.4-11.4 6.8 0 11.1 5 11.1 11.4zm-20.2 128V40.3h18.2v100H137v-.1zm48.3-68.7c0-11.8-.2-21.9-.8-31.2h15.9l.6 19.6h.8c4.5-13.4 15.5-21.9 27.7-21.9 2.1 0 3.5.2 5.2.6v17.1c-1.9-.4-3.7-.6-6.2-.6-12.8 0-21.9 9.7-24.4 23.3-.4 2.5-.8 5.4-.8 8.5v53.3h-18V71.5zm75.6 22.1c.4 24.6 16.1 34.7 34.3 34.7 13 0 20.9-2.3 27.7-5.2l3.1 13c-6.4 2.9-17.4 6.2-33.3 6.2-30.8 0-49.2-20.2-49.2-50.4S261.3 38 290.4 38c32.6 0 41.3 28.7 41.3 47.1 0 3.7-.4 6.6-.6 8.5h-70.2zm53.3-13.1c.2-11.6-4.8-29.5-25.2-29.5-18.4 0-26.4 16.9-27.9 29.5h53.1zm111.4 56c-4.8 2.5-15.3 5.8-28.7 5.8-30.2 0-49.8-20.5-49.8-51 0-30.8 21.1-53.1 53.7-53.1 10.7 0 20.2 2.7 25.2 5.2l-4.1 14c-4.3-2.5-11.2-4.8-21.1-4.8-22.9 0-35.3 16.9-35.3 37.8 0 23.1 14.9 37.4 34.7 37.4 10.3 0 17.1-2.7 22.3-5l3.1 13.7zm45.8-125v28.8h26v13.8h-26V108c0 12.4 3.5 19.4 13.6 19.4 4.8 0 8.3-.6 10.5-1.2l.8 13.6c-3.5 1.4-9.1 2.5-16.1 2.5-8.5 0-15.3-2.7-19.6-7.6-5.2-5.4-7-14.3-7-26V54.1h-15.5V40.3h15.5v-24l17.8-4.8zm158.7 60c0-11.8-.2-21.9-.8-31.2h15.9l.6 19.6h.8c4.5-13.4 15.5-21.9 27.7-21.9 2.1 0 3.5.2 5.2.6v17.1c-1.9-.4-3.7-.6-6.2-.6-12.8 0-21.9 9.7-24.4 23.3-.4 2.5-.8 5.4-.8 8.5v53.3h-18V71.5zm79.3-31.2l21.9 59.1c2.3 6.6 4.8 14.5 6.4 20.5h.4c1.9-6 3.9-13.6 6.4-20.9l19.9-58.7h19.2l-27.3 71.3c-13 34.3-21.9 51.9-34.3 62.6-8.9 7.8-17.8 10.9-22.3 11.8l-4.5-15.3c4.5-1.4 10.5-4.3 15.9-8.9 5-3.9 11.2-10.9 15.3-20.2.8-1.9 1.4-3.3 1.4-4.3s-.4-2.5-1.2-4.8l-37-92.1 19.8-.1z"/><text transform="translate(4649.424 3187.44)" class="st0" font-family="MyriadPro-Regular" font-size="206.585">Directory</text><path class="st0" d="M594.4 112.6c-1.5-3.6-3.5-7.1-5.9-10.3-2.4-3.2-5.1-6.2-8.1-8.6-3-2.4-6.1-4.4-9.4-5.6-.9.6-1.9 1.1-2.9 1.5-1 .5-2 .8-3.1 1.2s-2.2.6-3.3.7c-1.1.2-2.3.2-3.4.2-3.3 0-6.4-.7-9.3-1.9-2.9-1.2-5.4-3-7.6-5.1s-3.9-4.7-5.1-7.6-1.9-6-1.9-9.3c0-3.3.7-6.4 1.9-9.3 1.2-2.9 3-5.4 5.1-7.6s4.7-3.9 7.6-5.1c2.9-1.2 6-1.9 9.3-1.9 3.3 0 6.4.7 9.3 1.9s5.4 3 7.6 5.1 3.9 4.7 5.1 7.6c1.2 2.9 1.9 6 1.9 9.3 0 1.5-.1 3-.4 4.5-.3 1.5-.7 2.9-1.2 4.2-.5 1.3-1.2 2.6-1.9 3.8-.8 1.2-1.6 2.4-2.6 3.4 3.6 1.7 7 3.7 9.9 6 2.9 2.3 5.5 4.9 7.6 7.8 2.1 2.9 3.7 6.1 4.8 9.6 1.1 3.5 1.7 7.4 1.7 11.5 4.3-7.7 7-17.4 7-29.2 0-30.5-19.4-51.4-48.1-51.4-27.7 0-49.6 19.6-49.6 53.1 0 11.1 2.6 20.8 7.1 28.7 0-3 .3-5.9 1-8.5.6-2.7 1.6-5.3 2.8-7.7 1.2-2.5 2.7-4.8 4.5-7s3.8-4.3 6.1-6.3c.3-.3.7-.5 1-.6s.8-.2 1.1-.1.8.1 1.1.3c.3.2.7.4.9.7.3.3.5.7.6 1s.2.8.1 1.1c0 .4-.1.8-.3 1.1-.2.3-.4.7-.7.9-1.8 1.5-3.6 3.6-5.3 6-1.7 2.4-3.3 5-4.7 7.8s-2.6 5.6-3.6 8.3c-.9 2.7-1.5 5.3-1.7 7.6 8.7 11.6 22.2 18.2 37.8 18.2 14.8 0 30.1-6 39.8-19.2v-.1c-.2-3.5-1.1-7.1-2.6-10.7z"/><path class="st0" d="M576.3 66c-.4-4.2-2.3-8-5.2-10.8-2.9-2.9-6.6-4.8-10.8-5.2-5.7-.6-10.9 1.5-14.5 5.2-3.6 3.6-5.7 8.9-5.2 14.5.4 4.2 2.3 8 5.2 10.8 2.9 2.9 6.6 4.8 10.8 5.2 5.7.6 10.9-1.5 14.5-5.2 3.7-3.7 5.8-8.9 5.2-14.5z"/></svg>